<svg width="20" height="19" viewBox="0 0 20 19" fill="none" xmlns="http://www.w3.org/2000/svg">
<path d="M3.75 4.3125V13.6875" stroke="white" stroke-miterlimit="10" stroke-linecap="round" stroke-linejoin="round"/>
<path d="M6.875 4.3125V10.5625" stroke="white" stroke-miterlimit="10" stroke-linecap="round" stroke-linejoin="round"/>
<path d="M10 4.3125V13.6875" stroke="white" stroke-miterlimit="10" stroke-linecap="round" stroke-linejoin="round"/>
<path d="M13.125 4.3125V10.5625" stroke="white" stroke-miterlimit="10" stroke-linecap="round" stroke-linejoin="round"/>
<path d="M16.25 4.3125V13.6875" stroke="white" stroke-miterlimit="10" stroke-linecap="round" stroke-linejoin="round"/>
<path d="M0.78125 4.3125V2.75C0.78125 1.88707 1.48082 1.1875 2.34375 1.1875H3.90625" stroke="white" stroke-miterlimit="10" stroke-linecap="round" stroke-linejoin="round"/>
<path d="M16.0938 1.1875H17.6562C18.5192 1.1875 19.2188 1.88707 19.2188 2.75V4.3125" stroke="white" stroke-miterlimit="10" stroke-linecap="round" stroke-linejoin="round"/>
<path d="M19.2188 13.6875V15.25C19.2188 16.1129 18.5192 16.8125 17.6562 16.8125H16.0938" stroke="white" stroke-miterlimit="10" stroke-linecap="round" stroke-linejoin="round"/>
<path d="M3.90625 16.8125H2.34375C1.48082 16.8125 0.78125 16.1129 0.78125 15.25V13.6875" stroke="white" stroke-miterlimit="10" stroke-linecap="round" stroke-linejoin="round"/>
<circle cx="13.125" cy="13.6875" r="0.78125" fill="white"/>
<circle cx="6.875" cy="13.6875" r="0.78125" fill="white"/>
</svg>
