<svg width="20" height="20" viewBox="0 0 20 20" fill="none" xmlns="http://www.w3.org/2000/svg">
<g clip-path="url(#clip0_5043_20006)">
<path d="M18.1936 0.861949C18.1248 0.81948 18.0455 0.796875 17.9647 0.796875H4.90983C3.78747 0.796875 2.87438 1.70106 2.87438 2.8092L2.79766 14.0514H0.438393C0.196249 14.0514 0 14.2477 0 14.4898V16.5151C0.00154122 18.0024 1.20678 19.2077 2.69406 19.2094C2.7242 19.2094 2.75451 19.2063 2.78414 19.2001H13.6763C13.7412 19.2047 13.8066 19.2078 13.8726 19.2078C15.383 19.2051 16.606 17.9803 16.6065 16.4699V9.89815H19.5616C19.8037 9.89815 20 9.7019 20 9.45975V2.95202C19.9946 1.90553 19.2283 1.01864 18.1936 0.861949ZM0.876785 16.5153V14.9284H11.1386V16.4701C11.1381 17.157 11.3965 17.8187 11.8625 18.3233H2.63412C2.6134 18.3235 2.59285 18.325 2.57247 18.3281C1.6188 18.2632 0.877984 17.4712 0.876785 16.5153ZM15.7297 2.95202V16.4699C15.7289 16.96 15.5342 17.4296 15.1881 17.7764C14.8567 18.1163 14.4065 18.3148 13.9322 18.3298C13.9085 18.3257 13.8845 18.3237 13.8604 18.3235H13.7063C12.7514 18.2295 12.0217 17.4298 12.0154 16.4703V14.4898C12.0154 14.2478 11.8191 14.0514 11.577 14.0514H3.67445L3.75117 2.81228C3.7575 2.17833 4.2757 1.66887 4.90983 1.67366H16.1652C15.8828 2.03996 15.7296 2.48948 15.7297 2.95202ZM19.1232 9.02136H16.6065V2.95202C16.618 2.26515 17.178 1.71459 17.8648 1.71459C18.5517 1.71459 19.1117 2.26515 19.1232 2.95202V9.02136Z" fill="white"/>
<path d="M5.62833 5.54866H9.78039C10.0225 5.54866 10.2188 5.35241 10.2188 5.11027C10.2188 4.86812 10.0225 4.67188 9.78039 4.67188H5.62833C5.38619 4.67188 5.18994 4.86812 5.18994 5.11027C5.18994 5.35241 5.38619 5.54866 5.62833 5.54866Z" fill="white"/>
<path d="M13.3735 7.80469H5.62833C5.38619 7.80469 5.18994 8.00094 5.18994 8.24308C5.18994 8.48505 5.38619 8.68147 5.62833 8.68147H13.3735C13.6156 8.68147 13.8119 8.48505 13.8119 8.24308C13.8119 8.00094 13.6156 7.80469 13.3735 7.80469Z" fill="white"/>
<path d="M13.3735 10.9414H5.62833C5.38619 10.9414 5.18994 11.1378 5.18994 11.3798C5.18994 11.6219 5.38619 11.8182 5.62833 11.8182H13.3735C13.6156 11.8182 13.8119 11.6219 13.8119 11.3798C13.8119 11.1378 13.6156 10.9414 13.3735 10.9414Z" fill="white"/>
</g>
<defs>
<clipPath id="clip0_5043_20006">
<rect width="20" height="20" fill="white"/>
</clipPath>
</defs>
</svg>
