<svg width="20" height="20" viewBox="0 0 20 20" fill="none" xmlns="http://www.w3.org/2000/svg">
<g clip-path="url(#clip0_1114_284)">
<path fill-rule="evenodd" clip-rule="evenodd" d="M13.1954 2.01273H16.8079C16.9806 2.01273 17.1204 2.15273 17.1204 2.32523V18.9584C17.1204 19.1309 16.9806 19.2709 16.8079 19.2709H3.19209C3.01938 19.2709 2.87959 19.1309 2.87959 18.9584V2.32523C2.87959 2.15273 3.01938 2.01273 3.19209 2.01273H6.07542C6.24771 2.01273 6.38792 1.87273 6.38792 1.70023C6.38792 1.52794 6.24771 1.38773 6.07542 1.38773H3.19209C2.67417 1.38773 2.25459 1.80752 2.25459 2.32523V18.9584C2.25459 19.4761 2.67417 19.8959 3.19209 19.8959H16.8079C17.3258 19.8959 17.7454 19.4761 17.7454 18.9584V2.32523C17.7454 1.80752 17.3258 1.38773 16.8079 1.38773H13.1727C13.0944 1.08981 12.8231 0.869812 12.5004 0.869812C12.4619 0.869812 12.4298 0.838562 12.4298 0.799812C12.4298 0.416062 12.1188 0.104187 11.7348 0.104187H8.26521C7.88125 0.104187 7.57021 0.415437 7.57021 0.799187C7.57021 0.837937 7.53875 0.869812 7.50021 0.869812C7.11625 0.869812 6.80459 1.18106 6.80459 1.56481V2.56731C6.80459 2.97002 7.13104 3.29648 7.53375 3.29648H12.4663C12.869 3.29648 13.1954 2.97002 13.1954 2.56731V2.01273ZM13.4375 15.295H12.7079C12.5146 15.295 12.329 15.3719 12.1923 15.5088C12.0556 15.6454 11.9788 15.8309 11.9788 16.0242V17.6117C11.9788 17.805 12.0556 17.9904 12.1923 18.1273C12.329 18.264 12.5146 18.3409 12.7079 18.3409H14.2954C14.4888 18.3409 14.6742 18.264 14.8108 18.1273C14.9477 17.9906 15.0246 17.805 15.0246 17.6117V16.8823C15.0246 16.7098 14.8844 16.5698 14.7121 16.5698C14.5396 16.5698 14.3996 16.7098 14.3996 16.8823V17.6117C14.3996 17.6394 14.3885 17.6659 14.369 17.6854C14.3494 17.7048 14.3229 17.7159 14.2954 17.7159H12.7079C12.6802 17.7159 12.6538 17.7048 12.6342 17.6854C12.6148 17.6659 12.6038 17.6394 12.6038 17.6117V16.0242C12.6038 15.9967 12.6148 15.9702 12.6342 15.9506C12.6538 15.9311 12.6802 15.92 12.7079 15.92H13.4375C13.61 15.92 13.75 15.78 13.75 15.6075C13.75 15.435 13.61 15.295 13.4375 15.295ZM4.75604 17.5179H7.88917C8.06167 17.5179 8.20167 17.3779 8.20167 17.2054C8.20167 17.0329 8.06167 16.8929 7.88917 16.8929H4.75604C4.58354 16.8929 4.44354 17.0329 4.44354 17.2054C4.44354 17.3779 4.58354 17.5179 4.75604 17.5179ZM13.7225 17.039L15.5748 15.1867C15.6969 15.0646 15.6969 14.8667 15.5748 14.7448C15.4529 14.6227 15.255 14.6227 15.1329 14.7448L13.2806 16.5971C13.1588 16.719 13.1588 16.9169 13.2806 17.039C13.4027 17.1609 13.6006 17.1609 13.7225 17.039ZM4.75604 15.92H10.3021C10.4744 15.92 10.6146 15.78 10.6146 15.6075C10.6146 15.435 10.4744 15.295 10.3021 15.295H4.75604C4.58354 15.295 4.44354 15.435 4.44354 15.6075C4.44354 15.78 4.58354 15.92 4.75604 15.92ZM13.4375 10.2221H12.7079C12.5146 10.2221 12.329 10.299 12.1923 10.4359C12.0556 10.5725 11.9788 10.7579 11.9788 10.9513V12.5388C11.9788 12.7321 12.0556 12.9177 12.1923 13.0544C12.329 13.1911 12.5146 13.2679 12.7079 13.2679H14.2954C14.4888 13.2679 14.6742 13.1911 14.8108 13.0544C14.9477 12.9177 15.0246 12.7321 15.0246 12.5388V11.8094C15.0246 11.6369 14.8844 11.4969 14.7121 11.4969C14.5396 11.4969 14.3996 11.6369 14.3996 11.8094V12.5388C14.3996 12.5665 14.3885 12.5929 14.369 12.6125C14.3494 12.6319 14.3229 12.6429 14.2954 12.6429H12.7079C12.6802 12.6429 12.6538 12.6319 12.6342 12.6125C12.6148 12.5929 12.6038 12.5665 12.6038 12.5388V10.9513C12.6038 10.9238 12.6148 10.8973 12.6342 10.8777C12.6538 10.8581 12.6802 10.8471 12.7079 10.8471H13.4375C13.61 10.8471 13.75 10.7071 13.75 10.5346C13.75 10.3623 13.61 10.2221 13.4375 10.2221ZM4.75604 12.445H7.88917C8.06167 12.445 8.20167 12.305 8.20167 12.1325C8.20167 11.9602 8.06167 11.82 7.88917 11.82H4.75604C4.58354 11.82 4.44354 11.9602 4.44354 12.1325C4.44354 12.305 4.58354 12.445 4.75604 12.445ZM13.7225 11.9661L15.5748 10.1138C15.6969 9.9919 15.6969 9.79377 15.5748 9.6719C15.4529 9.54981 15.255 9.54981 15.1329 9.6719L13.2806 11.5242C13.1588 11.6461 13.1588 11.8442 13.2806 11.9661C13.4027 12.0879 13.6006 12.0879 13.7225 11.9661ZM4.75604 10.8471H10.3021C10.4744 10.8471 10.6146 10.7071 10.6146 10.5346C10.6146 10.3623 10.4744 10.2221 10.3021 10.2221H4.75604C4.58354 10.2221 4.44354 10.3623 4.44354 10.5346C4.44354 10.7071 4.58354 10.8471 4.75604 10.8471ZM13.4375 5.14919H12.7079C12.5146 5.1494 12.329 5.22606 12.1923 5.36294C12.0556 5.4996 11.9788 5.68502 11.9788 5.87856V7.46585C11.9788 7.65919 12.0556 7.84481 12.1923 7.98148C12.329 8.11815 12.5146 8.19502 12.7079 8.19502H14.2954C14.4888 8.19502 14.6742 8.11815 14.8108 7.98148C14.9477 7.84481 15.0246 7.65919 15.0246 7.46585V6.73648C15.0246 6.56398 14.8844 6.42398 14.7121 6.42398C14.5396 6.42398 14.3996 6.56398 14.3996 6.73648V7.46585C14.3996 7.49356 14.3885 7.52002 14.369 7.5396C14.3494 7.55898 14.3229 7.57002 14.2954 7.57002H12.7079C12.6802 7.57002 12.6538 7.55898 12.6342 7.5396C12.6148 7.52002 12.6038 7.49356 12.6038 7.46585V5.87856C12.6038 5.85085 12.6148 5.8244 12.6342 5.80481C12.6538 5.78523 12.6802 5.7744 12.7079 5.77419H13.4375C13.61 5.77419 13.75 5.63419 13.75 5.46169C13.75 5.2894 13.61 5.14919 13.4375 5.14919ZM4.75604 7.3721H7.88917C8.06167 7.3721 8.20167 7.2321 8.20167 7.0596C8.20167 6.88731 8.06167 6.7471 7.88917 6.7471H4.75604C4.58354 6.7471 4.44354 6.88731 4.44354 7.0596C4.44354 7.2321 4.58354 7.3721 4.75604 7.3721ZM13.7225 6.89315L15.5748 5.04085C15.6969 4.91898 15.6969 4.72085 15.5748 4.59898C15.4529 4.4769 15.255 4.4769 15.1329 4.59898L13.2806 6.45127C13.1588 6.57315 13.1588 6.77127 13.2806 6.89315C13.4027 7.01502 13.6006 7.01502 13.7225 6.89315ZM4.75604 5.77419H10.3021C10.4744 5.77419 10.6146 5.63419 10.6146 5.46169C10.6146 5.2894 10.4744 5.14919 10.3021 5.14919H4.75604C4.58354 5.14919 4.44354 5.2894 4.44354 5.46169C4.44354 5.63419 4.58354 5.77419 4.75604 5.77419ZM12.4998 1.49481C12.5385 1.49481 12.5704 1.52627 12.5704 1.56481V2.56731C12.5704 2.62481 12.524 2.67148 12.4663 2.67148H7.53375C7.47604 2.67148 7.42959 2.62481 7.42959 2.56731V1.56481C7.42959 1.52627 7.46083 1.49481 7.49959 1.49481C7.88334 1.49481 8.19521 1.18377 8.19521 0.799812C8.19521 0.761062 8.22646 0.729187 8.26521 0.729187H11.7348C11.7735 0.729187 11.8048 0.760437 11.8048 0.799187C11.8048 1.18315 12.116 1.49481 12.4998 1.49481Z" fill="white" stroke="white" stroke-width="0.3"/>
</g>
<defs>
<clipPath id="clip0_1114_284">
<rect width="20" height="20" fill="white"/>
</clipPath>
</defs>
</svg>
