<svg width="24" height="24" viewBox="0 0 24 24" fill="none" xmlns="http://www.w3.org/2000/svg">
<g clip-path="url(#clip0_3135_27607)">
<mask id="mask0_3135_27607" style="mask-type:luminance" maskUnits="userSpaceOnUse" x="0" y="0" width="24" height="24">
<path d="M24 0H0V24H24V0Z" fill="white"/>
</mask>
<g mask="url(#mask0_3135_27607)">
<path d="M12.4749 3.8499V4.01172C12.7681 4.60868 13.113 5.17887 13.5056 5.71575C14.8642 7.55699 16.7386 9.21276 18.521 10.4487C19.4119 11.0664 20.2783 11.5782 21.0439 11.9553C21.8091 12.3322 22.4679 12.5717 22.9473 12.6506C23.0715 12.6617 23.1865 12.7211 23.2675 12.8161C23.3493 12.9122 23.3897 13.037 23.3796 13.1629C23.3696 13.2888 23.3099 13.4055 23.2137 13.4874C23.1187 13.5684 22.9957 13.6087 22.8712 13.5999H21.1286L21.4743 19.4336L22.1303 22.3999H22.875H22.9749V22.4999V23.2499V23.3499H22.875H1.12498H1.02498V23.2499V22.4999V22.3999H1.12498H1.86968L2.52561 19.4336L2.87138 13.5999H1.12874C1.00428 13.6087 0.881244 13.5684 0.786176 13.4874C0.690034 13.4055 0.630364 13.2888 0.620292 13.1629C0.610221 13.037 0.650573 12.9122 0.732471 12.8161C0.813445 12.721 0.928474 12.6616 1.05274 12.6506C1.53209 12.5726 2.19083 12.3338 2.95607 11.9575C3.72163 11.5809 4.58806 11.0694 5.47894 10.4519C7.26132 9.2165 9.13573 7.56073 10.4943 5.71948C10.8871 5.18142 11.2319 4.61 11.5249 4.01178V1.1249C11.5249 0.998924 11.575 0.878106 11.6641 0.789026C11.7532 0.699946 11.874 0.649902 11.9999 0.649902H17.25H17.2513C17.3382 0.651038 17.4231 0.676006 17.4968 0.722071C17.5705 0.768135 17.6302 0.833539 17.6693 0.911161M12.4749 3.8499L10.5749 5.77865C10.9758 5.22956 11.3272 4.64603 11.6249 4.0349V1.1249C11.6249 1.02544 11.6645 0.930063 11.7348 0.859737C11.8051 0.789411 11.9005 0.749902 11.9999 0.749902H17.25C17.3186 0.750799 17.3856 0.770504 17.4438 0.806871C17.502 0.843237 17.5491 0.894872 17.58 0.956152M12.4749 3.8499H17.25C17.3359 3.84967 17.4204 3.82614 17.494 3.7818C17.5676 3.73747 17.6278 3.674 17.6682 3.59815L17.6689 3.59683C17.707 3.52255 17.7249 3.43953 17.7208 3.35614C17.7166 3.27275 17.6905 3.19193 17.6452 3.12182L17.0699 2.25012M12.4749 3.8499L17.5612 3.17615M17.6693 0.911161L17.58 0.956152M17.6693 0.911161C17.6694 0.911389 17.6691 0.910932 17.6693 0.911161ZM17.6693 0.911161C17.7072 0.985264 17.7249 1.06802 17.7208 1.15116C17.7166 1.23455 17.6905 1.31537 17.6452 1.38547L17.6445 1.38655L17.0699 2.25012M17.58 0.956152C17.6101 1.01479 17.6242 1.08033 17.6209 1.14617C17.6176 1.212 17.597 1.27581 17.5612 1.33115L16.9499 2.2499M16.9499 2.2499L17.0334 2.19482L17.0699 2.25012M16.9499 2.2499L17.0332 2.30529L17.0699 2.25012M16.9499 2.2499L17.5612 3.17615M17.5612 3.17615C17.597 3.23149 17.6176 3.2953 17.6209 3.36113C17.6242 3.42697 17.6101 3.49251 17.58 3.55115C17.5481 3.61103 17.5005 3.66114 17.4424 3.69614C17.3843 3.73114 17.3178 3.74972 17.25 3.7499L17.5612 3.17615ZM11.9999 15.7831L10.9734 21.4602C10.9532 21.5708 10.8942 21.6709 10.8073 21.7423C10.7205 21.8134 10.6114 21.8515 10.4992 21.8499M11.9999 15.7831L7.97497 21.7499V21.8499M11.9999 15.7831L13.0265 21.4602C13.0467 21.5708 13.1057 21.6709 13.1926 21.7423C13.2794 21.8134 13.3885 21.8515 13.5007 21.8499M11.9999 15.7831L13.4999 21.7499M10.4992 21.8499C10.4989 21.8499 10.4995 21.8499 10.4992 21.8499ZM10.4992 21.8499L10.4999 21.7499M10.4992 21.8499H7.97497M7.97497 21.8499H7.87497V22.3999H7.97497M7.97497 21.8499V22.3999M13.5007 21.8499H16.0249M13.5007 21.8499C13.501 21.8499 13.5004 21.8499 13.5007 21.8499ZM13.5007 21.8499L13.4999 21.7499M13.4999 21.7499H16.0249V21.8499M7.97497 22.3999V22.4999H16.0249V22.3999M7.97497 22.3999H16.0249M16.0249 22.3999H16.1249V21.8499H16.0249M16.0249 22.3999V21.8499M16.0914 2.51292L16.3583 2.8999H12.4749V1.5999H16.3583L16.0914 1.98688L16.0902 1.98865C16.0391 2.06621 16.0119 2.15703 16.0119 2.2499C16.0119 2.34277 16.0391 2.43359 16.0902 2.51115L16.0914 2.51292ZM3.82179 13.5999H7.02497V22.3999H2.84371L3.47254 19.6043L3.47456 19.5915C3.4767 19.5681 3.4769 19.5446 3.47521 19.5213L3.82179 13.5999ZM20.5254 19.5915L20.5274 19.6043L21.1562 22.3999H16.9749V13.5999H20.1781L20.5247 19.5213C20.523 19.5447 20.5232 19.5681 20.5254 19.5915ZM11.2541 6.28226L11.2552 6.28075C11.5252 5.91696 11.7739 5.53788 11.9999 5.14541C12.226 5.53788 12.4747 5.91697 12.7446 6.28075L12.7458 6.28226C14.7854 8.92411 17.3682 11.0952 20.3179 12.6499H3.68199C6.6317 11.0952 9.21452 8.92411 11.2541 6.28226ZM7.97497 20.8999V13.5999H11.4302L10.1052 20.8999H7.97497ZM16.0249 20.8999H13.8947L12.5697 13.5999H16.0249V20.8999Z" stroke="white"/>
</g>
</g>
<defs>
<clipPath id="clip0_3135_27607">
<rect width="24" height="24" fill="white"/>
</clipPath>
</defs>
</svg>
