<svg width="20" height="20" viewBox="0 0 20 20" fill="none" xmlns="http://www.w3.org/2000/svg">
<g id="blood-bag 1">
<g id="blood, bag, donate, donation">
<path id="Vector" d="M9.29084 17.9999H5.63637C5.05781 17.9996 4.50303 17.7697 4.09393 17.3606C3.68483 16.9515 3.45486 16.3967 3.45455 15.8181V4.18177C3.45455 3.98889 3.53118 3.8039 3.66757 3.66751C3.80396 3.53112 3.98894 3.4545 4.18182 3.4545H5.63637C5.82924 3.45446 6.01419 3.37781 6.15055 3.24141L7.39208 1.99995H9.69884L10.9404 3.24141C11.0767 3.37781 11.2617 3.45446 11.4545 3.4545H12.9091C13.1019 3.45467 13.2868 3.53135 13.4232 3.6677C13.5595 3.80406 13.6362 3.98894 13.6364 4.18177V4.66475C12.2849 4.34267 10.8698 4.40889 9.55433 4.85581C8.3579 5.28418 7.05482 5.31307 5.84059 4.93813C5.65542 4.88397 5.45632 4.90559 5.28708 4.99822C5.11785 5.09086 4.99235 5.24693 4.93819 5.4321C4.88403 5.61727 4.90564 5.81637 4.99828 5.9856C5.09091 6.15483 5.24698 6.28033 5.43215 6.3345C6.9042 6.78325 8.48022 6.75689 9.93644 6.25915C11.1282 5.83387 12.4249 5.80165 13.6364 6.16722V7.09086C13.6364 7.28374 13.713 7.46873 13.8494 7.60512C13.9858 7.74151 14.1707 7.81813 14.3636 7.81813C14.5565 7.81813 14.7415 7.74151 14.8779 7.60512C15.0143 7.46873 15.0909 7.28374 15.0909 7.09086V5.65333C15.0912 5.64199 15.0912 5.63064 15.0909 5.6193V4.18177C15.0903 3.60331 14.8602 3.04873 14.4512 2.6397C14.0421 2.23066 13.4875 2.00059 12.9091 1.99995H11.7557L10.5142 0.758501C10.3778 0.622101 10.1929 0.545451 10 0.54541H7.09091C6.89804 0.545451 6.71309 0.622101 6.57673 0.758501L5.33521 1.99995H4.18182C3.60352 2.00162 3.04921 2.23131 2.63921 2.63915C2.43593 2.84123 2.27477 3.08162 2.16504 3.34642C2.05532 3.61121 1.99923 3.89514 2.00001 4.18177V15.8181C2.00001 16.7825 2.38312 17.7075 3.06507 18.3894C3.74702 19.0714 4.67195 19.4545 5.63637 19.4545H9.29084C9.48372 19.4545 9.66871 19.3779 9.8051 19.2415C9.94149 19.1051 10.0181 18.9201 10.0181 18.7272C10.0181 18.5343 9.94149 18.3493 9.8051 18.213C9.66871 18.0766 9.48372 17.9999 9.29084 17.9999Z" fill="white"/>
<path id="Vector_2" d="M16.4792 11.9446C16.431 11.8621 16.367 11.79 16.2908 11.7322C16.2147 11.6745 16.128 11.6324 16.0356 11.6082C15.9432 11.584 15.8469 11.5782 15.7523 11.5912C15.6577 11.6042 15.5665 11.6357 15.4841 11.684C15.4016 11.7322 15.3295 11.7962 15.2718 11.8723C15.214 11.9484 15.1719 12.0352 15.1477 12.1276C15.1235 12.22 15.1177 12.3162 15.1307 12.4109C15.1437 12.5055 15.1753 12.5966 15.2235 12.6791C16.4164 14.7173 16.5452 15.5532 16.5452 15.8181C16.5452 16.3968 16.3154 16.9518 15.9062 17.3609C15.497 17.7701 14.9421 18 14.3634 18C13.7848 18 13.2298 17.7701 12.8206 17.3609C12.4115 16.9518 12.1816 16.3968 12.1816 15.8181C12.1816 14.718 13.883 11.9247 14.9554 10.4226C15.0648 10.2655 15.1079 10.0717 15.0754 9.88302C15.0428 9.69439 14.9371 9.5262 14.7814 9.41496C14.6256 9.30371 14.4322 9.25837 14.2432 9.28877C14.0542 9.31918 13.8848 9.42287 13.7718 9.57735C13.46 10.0135 10.7271 13.8949 10.7271 15.8181C10.7271 16.7826 11.1102 17.7075 11.7921 18.3894C12.4741 19.0714 13.399 19.4545 14.3634 19.4545C15.3278 19.4545 16.2528 19.0714 16.9347 18.3894C17.6167 17.7075 17.9998 16.7826 17.9998 15.8181C17.9998 14.96 17.5022 13.6931 16.4792 11.9446Z" fill="white"/>
<path id="Vector_3" d="M8.54563 4.18172C8.94729 4.18172 9.2729 3.85611 9.2729 3.45444C9.2729 3.05278 8.94729 2.72717 8.54563 2.72717C8.14397 2.72717 7.81836 3.05278 7.81836 3.45444C7.81836 3.85611 8.14397 4.18172 8.54563 4.18172Z" fill="white"/>
<path id="Vector_4" d="M10.0001 10.7272H9.27286V9.99998C9.27286 9.80709 9.19623 9.62211 9.05984 9.48572C8.92345 9.34933 8.73847 9.27271 8.54559 9.27271C8.3527 9.27271 8.16772 9.34933 8.03133 9.48572C7.89494 9.62211 7.81831 9.80709 7.81831 9.99998V10.7272H7.09104C6.89816 10.7272 6.71317 10.8039 6.57678 10.9403C6.44039 11.0767 6.36377 11.2616 6.36377 11.4545C6.36377 11.6474 6.44039 11.8324 6.57678 11.9688C6.71317 12.1052 6.89816 12.1818 7.09104 12.1818H7.81831V12.9091C7.81831 13.1019 7.89494 13.2869 8.03133 13.4233C8.16772 13.5597 8.3527 13.6363 8.54559 13.6363C8.73847 13.6363 8.92345 13.5597 9.05984 13.4233C9.19623 13.2869 9.27286 13.1019 9.27286 12.9091V12.1818H10.0001C10.193 12.1818 10.378 12.1052 10.5144 11.9688C10.6508 11.8324 10.7274 11.6474 10.7274 11.4545C10.7274 11.2616 10.6508 11.0767 10.5144 10.9403C10.378 10.8039 10.193 10.7272 10.0001 10.7272Z" fill="white"/>
</g>
</g>
</svg>
