<svg width="20" height="20" viewBox="0 0 20 20" fill="none" xmlns="http://www.w3.org/2000/svg">
<g clip-path="url(#clip0_5043_19991)">
<path d="M18.3333 1.33203H1.66667C0.746649 1.33313 0.00110204 2.07868 0 2.9987V14.9987C0.00110204 15.9187 0.746649 16.6643 1.66667 16.6654H11.6667V18.332C11.6667 18.4668 11.7479 18.5883 11.8724 18.6399C11.997 18.6915 12.1403 18.663 12.2357 18.5677L13.3333 17.47L14.431 18.5677C14.5263 18.663 14.6697 18.6915 14.7942 18.6399C14.9188 18.5883 15 18.4668 15 18.332V16.6654H18.3333C19.2534 16.6643 19.9989 15.9187 20 14.9987V2.9987C19.9989 2.07868 19.2534 1.33313 18.3333 1.33203ZM10.77 7.8537C10.7185 7.82993 10.6814 7.78294 10.6704 7.72729C10.6593 7.67164 10.6755 7.61405 10.714 7.57236C11.0123 7.2482 11.0123 6.74953 10.714 6.42536C10.6754 6.38363 10.6591 6.32591 10.6703 6.27015C10.6814 6.2144 10.7186 6.16737 10.7703 6.1437C11.1696 5.95788 11.3602 5.49733 11.209 5.0837C11.1893 5.03044 11.1963 4.97098 11.2279 4.92376C11.2594 4.87654 11.3116 4.84727 11.3683 4.84503C11.8085 4.82653 12.1612 4.4739 12.1797 4.0337C12.1819 3.97688 12.2112 3.92457 12.2585 3.89303C12.3058 3.86149 12.3654 3.85455 12.4187 3.87436C12.8324 4.02469 13.2924 3.83417 13.4787 3.43536C13.5022 3.38374 13.5492 3.34658 13.6048 3.33549C13.6605 3.3244 13.7181 3.34072 13.7597 3.37936C14.0839 3.67767 14.5827 3.67767 14.907 3.37936C14.9487 3.34075 15.0064 3.32448 15.0621 3.33563C15.1178 3.34679 15.1647 3.38401 15.1883 3.4357C15.3743 3.8347 15.8345 4.02521 16.248 3.87436C16.3013 3.85455 16.3609 3.86149 16.4082 3.89303C16.4555 3.92457 16.4848 3.97688 16.487 4.0337C16.5057 4.4745 16.8592 4.82739 17.3 4.84536C17.3567 4.8475 17.409 4.87669 17.4405 4.92387C17.472 4.97104 17.479 5.03048 17.4593 5.0837C17.308 5.49743 17.4988 5.95812 17.8983 6.1437C17.9499 6.16747 17.9869 6.21445 17.998 6.2701C18.0091 6.32575 17.9928 6.38335 17.9543 6.42503C17.6561 6.7492 17.6561 7.24787 17.9543 7.57203C17.9929 7.61377 18.0092 7.67149 17.9981 7.72724C17.9869 7.783 17.9497 7.83003 17.898 7.8537C17.4987 8.03951 17.3081 8.50006 17.4593 8.9137C17.479 8.96695 17.472 9.02641 17.4405 9.07363C17.409 9.12085 17.3567 9.15012 17.3 9.15236C16.8585 9.17008 16.5047 9.5239 16.487 9.96536C16.4848 10.0222 16.4555 10.0745 16.4082 10.106C16.3609 10.1376 16.3013 10.1445 16.248 10.1247C15.8343 9.9742 15.3742 10.1648 15.188 10.5637C15.1653 10.6158 15.1182 10.6533 15.0623 10.6637C15.0065 10.6754 14.9486 10.6591 14.907 10.62C14.5827 10.3219 14.084 10.3219 13.7597 10.62C13.7181 10.659 13.6601 10.6753 13.6043 10.6637C13.5484 10.6533 13.5012 10.6158 13.4783 10.5637C13.2925 10.1646 12.8322 9.97401 12.4187 10.125C12.3654 10.1448 12.3058 10.1379 12.2585 10.1064C12.2112 10.0748 12.1819 10.0225 12.1797 9.9657C12.162 9.52411 11.8082 9.17008 11.3667 9.15203C11.31 9.1499 11.2577 9.1207 11.2262 9.07353C11.1946 9.02635 11.1876 8.96692 11.2073 8.9137C11.3589 8.50041 11.1689 8.03987 10.77 7.8537ZM14.4313 14.096L14.3333 14.194V11.0607C14.3779 11.0606 14.4209 11.0774 14.4537 11.1077C14.6081 11.2525 14.8119 11.3331 15.0237 11.333C15.0803 11.3329 15.1368 11.3273 15.1923 11.3164C15.4576 11.2646 15.6812 11.0874 15.7923 10.841C15.8314 10.757 15.9284 10.717 16.0153 10.749C16.1168 10.785 16.2241 10.8011 16.3317 10.7967V14.194L15.5673 13.4297C15.4372 13.2996 15.2262 13.2996 15.096 13.4297L14.4313 14.096ZM14.3333 17.5274L13.569 16.763C13.4388 16.6329 13.2278 16.6329 13.0977 16.763L12.3333 17.5274V10.796C12.4409 10.8005 12.5482 10.7843 12.6497 10.7484C12.7364 10.7161 12.8334 10.756 12.8723 10.84C12.9837 11.087 13.2083 11.2644 13.4743 11.3157C13.5376 11.3282 13.6021 11.3337 13.6667 11.332V14.9987C13.6667 15.1335 13.7479 15.255 13.8724 15.3066C13.997 15.3582 14.1403 15.3297 14.2357 15.2344L14.3333 15.1367V17.5274ZM19.3333 14.9987C19.3333 15.551 18.8856 15.9987 18.3333 15.9987H15V14.47L15.3333 14.1367L16.431 15.2344C16.5263 15.3297 16.6697 15.3582 16.7942 15.3066C16.9188 15.255 17 15.1335 17 14.9987V10.4344C17.093 10.3037 17.1462 10.1489 17.153 9.9887C17.1571 9.89624 17.2312 9.82225 17.3237 9.81836C17.5939 9.80794 17.8428 9.66866 17.993 9.44378C18.1432 9.21889 18.1765 8.93565 18.0827 8.68203C18.0508 8.59527 18.0908 8.4986 18.1747 8.4597C18.4205 8.34675 18.5973 8.12278 18.6501 7.85741C18.7029 7.59205 18.6253 7.31747 18.4413 7.11903C18.3787 7.05091 18.3787 6.94615 18.4413 6.87803C18.6253 6.67966 18.7029 6.40512 18.6501 6.1398C18.5973 5.87448 18.4205 5.65057 18.1747 5.5377C18.0906 5.49903 18.0504 5.40222 18.0823 5.31536C18.1762 5.06175 18.1429 4.7785 17.9926 4.55362C17.8424 4.32874 17.5936 4.18945 17.3233 4.17903C17.2309 4.17514 17.1567 4.10116 17.1527 4.0087C17.1426 3.73837 17.0034 3.48928 16.7786 3.33891C16.5537 3.18853 16.2704 3.15511 16.0167 3.24903C15.9299 3.2818 15.8326 3.24173 15.794 3.15736C15.6811 2.91151 15.4571 2.7347 15.1917 2.68192C14.9264 2.62914 14.6518 2.70678 14.4533 2.8907C14.3853 2.95331 14.2807 2.95331 14.2127 2.8907C14.0143 2.70677 13.7398 2.62913 13.4744 2.68192C13.2091 2.7347 12.9852 2.91152 12.8723 3.15736C12.8336 3.24178 12.7363 3.28194 12.6493 3.24936C12.3956 3.15544 12.1123 3.18886 11.8874 3.33924C11.6626 3.48962 11.5234 3.7387 11.5133 4.00903C11.5093 4.10149 11.4351 4.17548 11.3427 4.17936C11.0724 4.18979 10.8236 4.32907 10.6734 4.55395C10.5231 4.77884 10.4898 5.06208 10.5837 5.3157C10.6155 5.40246 10.5755 5.49912 10.4917 5.53803C10.2458 5.65098 10.069 5.87495 10.0162 6.14032C9.96344 6.40568 10.0411 6.68026 10.225 6.8787C10.2877 6.94682 10.2877 7.05158 10.225 7.1197C10.0411 7.31807 9.96343 7.59261 10.0162 7.85793C10.069 8.12325 10.2458 8.34716 10.4917 8.46003C10.5757 8.4987 10.6159 8.59551 10.584 8.68237C10.4901 8.93598 10.5235 9.21923 10.6737 9.44411C10.8239 9.66899 11.0728 9.80828 11.343 9.8187C11.4355 9.82259 11.5096 9.89657 11.5137 9.98903C11.5205 10.1491 11.5737 10.3038 11.6667 10.4344V15.9987H1.66667C1.11438 15.9987 0.666667 15.551 0.666667 14.9987V2.9987C0.666667 2.44641 1.11438 1.9987 1.66667 1.9987H18.3333C18.8856 1.9987 19.3333 2.44641 19.3333 2.9987V14.9987Z" fill="white"/>
<path d="M3.66667 13.3333C3.11438 13.3333 2.66667 12.8856 2.66667 12.3333V5.66667C2.66667 5.11438 3.11438 4.66667 3.66667 4.66667H9.66667C9.85076 4.66667 10 4.51743 10 4.33333C10 4.14924 9.85076 4 9.66667 4H3.66667C2.74665 4.0011 2.0011 4.74665 2 5.66667V12.3333C2.0011 13.2534 2.74665 13.9989 3.66667 14H10C10.1841 14 10.3333 13.8508 10.3333 13.6667C10.3333 13.4826 10.1841 13.3333 10 13.3333H3.66667Z" fill="white"/>
<path d="M4.00008 9.33073H8.66675C8.85084 9.33073 9.00008 9.18149 9.00008 8.9974C9.00008 8.8133 8.85084 8.66406 8.66675 8.66406H4.00008C3.81599 8.66406 3.66675 8.8133 3.66675 8.9974C3.66675 9.18149 3.81599 9.33073 4.00008 9.33073Z" fill="white"/>
<path d="M4.00008 7.9987H8.66675C8.85084 7.9987 9.00008 7.84946 9.00008 7.66536C9.00008 7.48127 8.85084 7.33203 8.66675 7.33203H4.00008C3.81599 7.33203 3.66675 7.48127 3.66675 7.66536C3.66675 7.84946 3.81599 7.9987 4.00008 7.9987Z" fill="white"/>
<path d="M4.00008 6.66667H8.66675C8.85084 6.66667 9.00008 6.51743 9.00008 6.33333C9.00008 6.14924 8.85084 6 8.66675 6H4.00008C3.81599 6 3.66675 6.14924 3.66675 6.33333C3.66675 6.51743 3.81599 6.66667 4.00008 6.66667Z" fill="white"/>
<path d="M3.69437 12.4638C3.74741 12.5853 3.86743 12.6638 4.00003 12.6638C4.04592 12.664 4.09135 12.6545 4.13337 12.6361C4.44197 12.5215 4.72558 12.3484 4.9687 12.1264C5.05895 12.0364 5.13787 11.9356 5.2037 11.8264C5.33099 11.9695 5.48059 12.0911 5.6467 12.1864C5.87837 12.3379 6.16671 12.3748 6.42903 12.2864C6.52959 12.2474 6.62054 12.1871 6.6957 12.1098C6.84654 12.204 7.01271 12.2711 7.1867 12.3081L7.4387 12.3678C7.95307 12.5184 8.48751 12.5893 9.02337 12.5778C9.14216 12.5692 9.24735 12.4979 9.29932 12.3907C9.35129 12.2836 9.34214 12.1568 9.27532 12.0582C9.2085 11.9596 9.09416 11.9042 8.97537 11.9128C8.50777 11.9189 8.04198 11.8537 7.59403 11.7194L7.33637 11.6584C7.02537 11.5868 6.94537 11.4614 6.91237 11.3731C6.85428 11.218 6.69113 11.1291 6.52931 11.1643C6.36748 11.1995 6.25606 11.3482 6.2677 11.5134C6.27142 11.5732 6.24312 11.6304 6.19337 11.6638C6.11549 11.6737 6.03677 11.6534 5.97337 11.6071C5.70379 11.4393 5.50107 11.1828 5.40003 10.8818C5.34268 10.7268 5.1804 10.6372 5.01867 10.6713C4.85695 10.7054 4.74462 10.8528 4.7547 11.0178C4.76031 11.2562 4.66691 11.4863 4.4967 11.6534C4.31161 11.8153 4.09796 11.9412 3.8667 12.0248C3.7856 12.0601 3.72188 12.1262 3.68956 12.2086C3.65723 12.2909 3.65896 12.3827 3.69437 12.4638Z" fill="white"/>
<path d="M14.3334 9.66536C15.8062 9.66536 17.0001 8.47146 17.0001 6.9987C17.0001 5.52594 15.8062 4.33203 14.3334 4.33203C12.8607 4.33203 11.6667 5.52594 11.6667 6.9987C11.6684 8.47077 12.8613 9.66371 14.3334 9.66536ZM14.3334 4.9987C15.438 4.9987 16.3334 5.89413 16.3334 6.9987C16.3334 8.10327 15.438 8.9987 14.3334 8.9987C13.2288 8.9987 12.3334 8.10327 12.3334 6.9987C12.3345 5.89459 13.2293 4.9998 14.3334 4.9987Z" fill="white"/>
</g>
<defs>
<clipPath id="clip0_5043_19991">
<rect width="20" height="20" fill="white"/>
</clipPath>
</defs>
</svg>
