<svg width="27" height="24" viewBox="0 0 27 24" fill="none" xmlns="http://www.w3.org/2000/svg">
<rect width="27" height="24" rx="4" fill="#214F8A"/>
<path d="M5.08004 18.5H16.9604C17.5544 18.5 18.0405 18.0125 18.0405 17.4167C18.0405 16.8208 17.5544 16.3333 16.9604 16.3333H5.08004C4.48602 16.3333 4 16.8208 4 17.4167C4 18.0125 4.48602 18.5 5.08004 18.5ZM5.08004 13.0833H13.7203C14.3143 13.0833 14.8004 12.5958 14.8004 12C14.8004 11.4042 14.3143 10.9167 13.7203 10.9167H5.08004C4.48602 10.9167 4 11.4042 4 12C4 12.5958 4.48602 13.0833 5.08004 13.0833ZM4 6.58333C4 7.17917 4.48602 7.66667 5.08004 7.66667H16.9604C17.5544 7.66667 18.0405 7.17917 18.0405 6.58333C18.0405 5.9875 17.5544 5.5 16.9604 5.5H5.08004C4.48602 5.5 4 5.9875 4 6.58333ZM22.6846 15.12L19.5741 12L22.6846 8.88C22.7846 8.7797 22.8639 8.66063 22.918 8.52959C22.9721 8.39854 23 8.25809 23 8.11625C23 7.97441 22.9721 7.83396 22.918 7.70291C22.8639 7.57187 22.7846 7.4528 22.6846 7.3525C22.5846 7.2522 22.4659 7.17264 22.3353 7.11836C22.2046 7.06408 22.0646 7.03614 21.9232 7.03614C21.7818 7.03614 21.6417 7.06408 21.5111 7.11836C21.3805 7.17264 21.2617 7.2522 21.1618 7.3525L17.2844 11.2417C17.1843 11.3419 17.1049 11.4609 17.0507 11.592C16.9965 11.723 16.9686 11.8635 16.9686 12.0054C16.9686 12.1473 16.9965 12.2878 17.0507 12.4188C17.1049 12.5499 17.1843 12.6689 17.2844 12.7692L21.1618 16.6583C21.583 17.0808 22.2634 17.0808 22.6846 16.6583C23.095 16.2358 23.1058 15.5425 22.6846 15.12Z" fill="white"/>
</svg>
