<svg width="24" height="24" viewBox="0 0 24 24" fill="none" xmlns="http://www.w3.org/2000/svg">
<mask id="mask0_3122_26712" style="mask-type:luminance" maskUnits="userSpaceOnUse" x="0" y="0" width="24" height="24">
<path d="M0 1.90735e-06H24V24H0V1.90735e-06Z" fill="white"/>
</mask>
<g mask="url(#mask0_3122_26712)">
<path d="M11.5574 11.8164C11.524 11.8151 11.4906 11.7857 11.4238 11.7336L9.86246 10.1855L9.64876 9.9745C9.12516 9.43089 9.12516 8.5413 9.65007 7.99769C10.1256 7.50348 10.8962 7.6277 11.4051 8.08586C11.4999 8.17136 11.5333 8.21275 11.5574 8.21275C11.5828 8.21275 11.6161 8.17136 11.711 8.08586C12.2199 7.6277 12.9905 7.50348 13.466 7.99769C13.9909 8.5413 13.9909 9.43089 13.466 9.9745L13.2536 10.1855L11.6923 11.7336C11.6255 11.7857 11.5921 11.8151 11.5574 11.8164Z" stroke="white" stroke-miterlimit="10" stroke-linecap="round" stroke-linejoin="round"/>
<path d="M7.35948 6.87556C6.88933 7.89069 6.57812 8.85238 6.57812 9.63242C6.57812 12.8874 9.06775 14.5156 11.5574 14.5156C14.0484 14.5156 16.538 12.8874 16.538 9.63242C16.538 7.124 13.3138 2.74297 11.9635 0.714079C11.6429 0.233235 11.4733 0.233235 11.1527 0.714079C10.1176 2.27014 9.04905 3.76611 8.12613 5.39698" stroke="white" stroke-miterlimit="10" stroke-linecap="round" stroke-linejoin="round"/>
<path d="M14.039 17.1465C14.465 16.9955 14.6894 16.5241 14.5385 16.098C14.3876 15.6719 13.9161 15.4462 13.4713 15.6051L9.24536 17.1719" stroke="white" stroke-miterlimit="10" stroke-linecap="round" stroke-linejoin="round"/>
<path d="M14.8698 20.5625L20.8188 18.3479C21.2742 18.1877 21.516 17.6828 21.3544 17.2273C21.1927 16.7719 20.6879 16.5301 20.2124 16.6997L14.2875 18.9089" stroke="white" stroke-miterlimit="10" stroke-linecap="round" stroke-linejoin="round"/>
<path d="M18.1034 17.4879C18.4453 17.2742 18.6056 16.8428 18.4667 16.4488C18.305 15.9933 17.8002 15.7528 17.3261 15.9212L11.7017 18.0195" stroke="white" stroke-miterlimit="10" stroke-linecap="round" stroke-linejoin="round"/>
<path d="M9.82774 19.9368L12.9344 20.9612C15.2959 21.7413 15.5176 19.285 14.2875 18.907L9.24541 17.1692C8.00191 16.7405 7.61862 16.1555 5.08887 17.1025" stroke="white" stroke-miterlimit="10" stroke-linecap="round" stroke-linejoin="round"/>
<path d="M20.3967 18.5053C20.9563 18.2916 21.5801 18.3503 21.8953 18.8592C22.2092 19.3681 22.0943 20.1321 21.5413 20.3565L17.1364 22.1503C16.4686 22.4215 14.6574 23.1134 13.5221 23.4646C12.7568 23.7011 11.4265 23.7131 10.6438 23.4793L8.43466 22.8195C7.04027 22.4028 6.42185 22.2973 5.08887 22.2759" stroke="white" stroke-miterlimit="10" stroke-linecap="round" stroke-linejoin="round"/>
<path d="M1.93274 18.6332V16.7712C1.93274 16.4333 2.20921 16.1568 2.54713 16.1568H4.47449C4.81241 16.1568 5.08888 16.4346 5.08888 16.7712V22.4051C5.08888 22.7417 4.81105 23.0195 4.47449 23.0195H2.54713C2.20921 23.0195 1.93274 22.7431 1.93274 22.4051V20.3815" stroke="white" stroke-miterlimit="10" stroke-linecap="round" stroke-linejoin="round"/>
</g>
</svg>
