<svg width="22" height="22" viewBox="0 0 22 22" fill="none" xmlns="http://www.w3.org/2000/svg">
<path d="M4.701 18.7199C4.52254 18.7199 4.37842 18.5757 4.37842 18.3974V16.8421C4.37842 16.6638 4.52254 16.5195 4.701 16.5195C4.8793 16.5195 5.02358 16.6638 5.02358 16.8421V18.3974C5.02358 18.5753 4.87898 18.7199 4.701 18.7199Z" fill="white" stroke="white" stroke-width="0.5"/>
<path d="M11.4919 19.1929H1.32258C1.14412 19.1929 1 19.0487 1 18.8703V15.7109C1 12.801 2.78458 10.1975 5.44036 9.2332C5.5503 9.19288 5.67252 9.21587 5.76026 9.29163C6.49284 9.919 7.4171 10.2649 8.36326 10.2649C9.31383 10.2649 10.2409 9.91711 10.9738 9.28518C11.0622 9.20941 11.1855 9.18642 11.2948 9.22643C11.9806 9.47592 12.6196 9.83882 13.1941 10.3055C13.2728 10.369 13.3171 10.4662 13.3132 10.5675C13.3097 10.6684 13.259 10.7623 13.1761 10.8201L13.1371 10.8475L12.9597 10.5946L12.7877 10.8066C12.3171 10.4243 11.799 10.1193 11.2451 9.89805C10.4203 10.552 9.40456 10.9104 8.36326 10.9104C7.32669 10.9104 6.3139 10.5545 5.49029 9.90482C3.18293 10.8245 1.64516 13.1342 1.64516 15.7109V18.5477H11.4919V19.1929Z" fill="white" stroke="white" stroke-width="0.5"/>
<path d="M8.36335 10.911C5.73939 10.911 3.60498 8.68773 3.60498 5.95557C3.60498 3.22325 5.73939 1 8.36335 1C10.9871 1 13.122 3.22293 13.122 5.9551C13.122 8.68742 10.9871 10.911 8.36335 10.911ZM8.36335 1.64516C6.09521 1.64516 4.25014 3.57875 4.25014 5.9551C4.25014 8.33192 6.09521 10.2655 8.36335 10.2655C10.6313 10.2655 12.4769 8.33192 12.4769 5.9551C12.4769 3.57875 10.6313 1.64516 8.36335 1.64516Z" fill="white" stroke="white" stroke-width="0.5"/>
<path d="M15.3888 17.5811C15.2542 17.5811 15.1191 17.569 14.9846 17.5441C14.3927 17.4341 13.8756 17.0928 13.5278 16.5822C13.1821 16.0728 13.0507 15.4624 13.1581 14.8644C13.2662 14.265 13.602 13.7408 14.1036 13.3879C14.6072 13.0341 15.2111 12.9008 15.8036 13.0095C16.3959 13.1196 16.9127 13.4611 17.2597 13.9717L17.2623 13.9754C17.6046 14.4934 17.7349 15.1025 17.6298 15.6892C17.5216 16.2882 17.1863 16.8124 16.6843 17.1654C16.2949 17.4388 15.8459 17.5811 15.3888 17.5811ZM15.4001 13.6173C15.0742 13.6173 14.7537 13.7193 14.4749 13.9157C14.1129 14.1699 13.871 14.5473 13.7937 14.9785C13.7162 15.4095 13.8116 15.8502 14.0621 16.2196C14.3117 16.5866 14.6814 16.8315 15.1027 16.9099C15.522 16.9873 15.9526 16.8912 16.3133 16.6376C16.6753 16.3834 16.9172 16.006 16.9946 15.575C17.0703 15.1528 16.9746 14.7114 16.7249 14.3324C16.4759 13.9664 16.1068 13.7218 15.6858 13.6438C15.5904 13.6263 15.4952 13.6173 15.4001 13.6173Z" fill="white" stroke="white" stroke-width="0.5"/>
<path d="M15.4704 21.0009C15.4295 21.0009 15.3879 20.9971 15.3466 20.9895L13.4559 20.6392C13.0947 20.5721 12.863 20.2341 12.9285 19.8696L13.0794 19.0296C13.0585 19.0158 13.0385 19.0016 13.0199 18.9874L12.9956 18.9715L12.2979 19.4621C12.1717 19.5587 11.9956 19.6022 11.8247 19.5735C11.6481 19.5447 11.4895 19.4431 11.3889 19.2947L10.2992 17.6922C10.2041 17.5629 10.1634 17.3906 10.1921 17.217C10.2208 17.0418 10.3198 16.8834 10.4643 16.7821L11.1472 16.2893C11.1417 16.2628 11.1372 16.2376 11.1331 16.2141C11.1307 16.2022 11.1288 16.1899 11.1269 16.1773L10.3024 16.0245C10.1334 15.9928 9.98136 15.8916 9.88591 15.746C9.78794 15.5964 9.75659 15.4176 9.79691 15.2425L10.1395 13.3361C10.1715 13.158 10.2679 13.0053 10.4117 12.9058C10.5547 12.8067 10.7295 12.7702 10.9044 12.8025L11.7228 12.9545C11.7355 12.9342 11.7488 12.9148 11.762 12.8967L11.7823 12.8637L11.2956 12.148C11.2008 12.0193 11.1602 11.8473 11.1882 11.6738C11.2169 11.4986 11.3159 11.34 11.4601 11.2382L13.0378 10.1292C13.1643 10.0331 13.3407 9.99061 13.5112 10.018C13.6876 10.0467 13.8463 10.1483 13.947 10.2967L14.4312 11.0086C14.4401 11.0064 14.4491 11.0039 14.4579 11.0015C14.4685 10.9984 14.4795 10.9957 14.4907 10.9938C14.502 10.9916 14.5137 10.9895 14.5254 10.988L14.6766 10.1464C14.7092 9.96761 14.8056 9.81546 14.9495 9.71576C15.0921 9.617 15.2666 9.58093 15.4417 9.6129L17.3234 9.96163C17.6847 10.0286 17.9162 10.3667 17.8507 10.7312L17.6995 11.5712C17.7208 11.5851 17.7408 11.5993 17.7595 11.6134L17.7836 11.6293L18.4814 11.1387C18.6078 11.0425 18.7843 10.9996 18.9547 11.0273C19.1311 11.056 19.2899 11.1576 19.3905 11.3061L20.4717 12.908C20.5659 13.0357 20.6065 13.2077 20.5785 13.3812C20.5498 13.5563 20.4507 13.7151 20.3066 13.8167L19.6021 14.3116C19.6049 14.3245 19.6079 14.3371 19.611 14.3489C19.614 14.3593 19.6165 14.3695 19.6181 14.3806C19.6205 14.3932 19.6227 14.4058 19.6246 14.4187L20.4488 14.5715C20.7791 14.6329 21.0105 14.9386 20.9995 15.2977C20.9988 15.3135 20.9973 15.3292 20.9943 15.3448L20.6489 17.2671C20.6166 17.4454 20.5202 17.598 20.3759 17.6977C20.2327 17.7963 20.0585 17.8316 19.8834 17.8003L19.0656 17.6483C19.0527 17.6686 19.0394 17.688 19.0262 17.7061L19.0059 17.7387L19.4927 18.4547C19.5879 18.5842 19.6285 18.7563 19.5998 18.9299C19.571 19.1051 19.4721 19.2635 19.3275 19.3648L17.7504 20.4735C17.624 20.5699 17.4483 20.6131 17.2772 20.585C17.1011 20.556 16.9423 20.4548 16.8414 20.3067L16.3596 19.5976C16.3384 19.6019 16.3178 19.6058 16.2978 19.6096C16.2863 19.6115 16.275 19.6138 16.263 19.6154L16.1118 20.4567C16.0798 20.6348 15.9834 20.7873 15.8395 20.887C15.7301 20.9618 15.6027 21.0009 15.4704 21.0009ZM12.9981 18.2528C13.0772 18.2528 13.156 18.2819 13.2176 18.3389C13.2505 18.3693 13.2883 18.3922 13.3259 18.4171L13.3998 18.466C13.4321 18.49 13.4798 18.5224 13.5734 18.5658C13.7066 18.6273 13.7818 18.7711 13.7556 18.9157L13.5638 19.9838L15.4643 20.3551L15.6689 19.2738C15.6914 19.1479 15.7856 19.048 15.9099 19.0173C15.9762 19.0013 16.0414 18.9924 16.1044 18.9847C16.1307 18.9813 16.1565 18.9783 16.1814 18.9739C16.2205 18.9666 16.3153 18.949 16.3763 18.9247C16.5175 18.8683 16.6785 18.9176 16.7634 19.0425L17.3753 19.9429L18.9566 18.836L18.3465 17.9167C18.2634 17.7941 18.2739 17.6306 18.373 17.5202C18.4031 17.4867 18.4256 17.4479 18.4502 17.4093L18.4985 17.3345C18.522 17.3019 18.5543 17.2524 18.5979 17.156C18.6586 17.0206 18.8021 16.9451 18.9511 16.9708L20.0013 17.1656L20.354 15.2599C20.351 15.227 20.3371 15.2073 20.331 15.2061L19.2807 15.0112C19.1554 14.9879 19.0553 14.8928 19.0259 14.7684C19.0098 14.7016 19.0018 14.6364 18.9941 14.5738C18.9914 14.5508 18.9889 14.528 18.9856 14.5064C18.9769 14.4732 18.9692 14.4384 18.9621 14.4025C18.9544 14.3658 18.9479 14.3273 18.9347 14.2928C18.8802 14.1544 18.9279 13.997 19.0492 13.9112L19.935 13.2887L18.8559 11.6676L17.9666 12.2893C17.8417 12.3767 17.6733 12.3654 17.5617 12.2619C17.5289 12.2315 17.4911 12.2087 17.4533 12.1838L17.3794 12.1348C17.3471 12.1108 17.2991 12.0779 17.2059 12.0351C17.0724 11.9741 16.9972 11.8295 17.0233 11.6851L17.2156 10.617L15.3242 10.2474L15.1198 11.3287C15.0973 11.4539 15.0034 11.5541 14.8801 11.5848C14.8133 11.6011 14.7485 11.61 14.6855 11.6177C14.6636 11.6205 14.6421 11.6232 14.6214 11.6263C14.5882 11.6352 14.5534 11.6432 14.5183 11.6506C14.483 11.658 14.4463 11.6645 14.414 11.6774C14.2733 11.7358 14.1114 11.686 14.0256 11.5602L13.4137 10.6599L11.8324 11.7664L12.4424 12.6858C12.5259 12.8086 12.5149 12.9726 12.4154 13.0828C12.3856 13.1161 12.3634 13.1542 12.3391 13.1925L12.2905 13.2681C12.267 13.3005 12.2347 13.35 12.1911 13.4464C12.1304 13.5818 11.9879 13.6573 11.8379 13.6316L10.7875 13.4368L10.4298 15.3722L11.4714 15.5844C11.5966 15.6077 11.6963 15.7025 11.7263 15.8263C11.7423 15.8938 11.7508 15.9593 11.7585 16.0224C11.7617 16.0495 11.765 16.076 11.7691 16.1015C11.7759 16.1399 11.793 16.2382 11.8179 16.3025C11.8718 16.4395 11.8256 16.5955 11.7062 16.6815L10.8388 17.3074L11.923 18.9315L12.8131 18.3109C12.8688 18.2722 12.9337 18.2528 12.9981 18.2528Z" fill="white" stroke="white" stroke-width="0.5"/>
</svg>
