<svg width="20" height="20" viewBox="0 0 20 20" fill="none" xmlns="http://www.w3.org/2000/svg">
<g clip-path="url(#clip0_1114_294)">
<g clip-path="url(#clip1_1114_294)">
<path d="M17.1 7.63363C17.6688 7.07656 18 6.31559 18 5.5C18 3.84586 16.6543 2.5 15 2.5C14.4534 2.5 13.9157 2.65023 13.4443 2.93457C13.2868 3.0298 13.236 3.23453 13.3311 3.39227C13.4261 3.55 13.6312 3.60027 13.7887 3.50555C14.1562 3.28387 14.5749 3.16668 15 3.16668C16.2864 3.16668 17.3333 4.2134 17.3333 5.5C17.3333 6.2923 16.9365 7.02262 16.2705 7.45457C15.7112 7.82145 15.0023 7.92723 14.3548 7.74281C14.1797 7.69234 13.9935 7.79457 13.9427 7.97164C13.8922 8.14871 13.9948 8.33312 14.1719 8.38375C14.4414 8.4609 14.72 8.49996 15 8.49996C15.5241 8.49996 16.0308 8.35699 16.4806 8.09879C18.1918 8.71883 19.3333 10.3344 19.3333 12.1666V13.8333H16.2938C16.0577 11.6069 14.657 9.65863 12.6139 8.73352C13.2641 8.07156 13.6666 7.16563 13.6666 6.16668C13.6667 4.14484 12.0218 2.5 10 2.5C7.9782 2.5 6.33332 4.14484 6.33332 6.16668C6.33332 7.16594 6.73613 8.07215 7.38664 8.73418C6.69906 9.04656 6.06137 9.48359 5.52051 10.0214C4.48367 11.0612 3.85273 12.3957 3.70297 13.8334H0.66668V12.1667C0.66668 11.0124 1.11754 9.92406 1.93492 9.10324C2.38488 8.65613 2.9327 8.31504 3.52254 8.10066C3.97242 8.35781 4.47754 8.5 5 8.5C5.27996 8.5 5.55859 8.46094 5.82812 8.38379C6.0052 8.33316 6.10773 8.14875 6.0573 7.97168C6.00652 7.79461 5.82031 7.69254 5.6452 7.74285C4.99805 7.92758 4.28941 7.82195 3.72789 7.45379C3.06352 7.02262 2.66668 6.29234 2.66668 5.5C2.66668 4.2134 3.71355 3.16668 5 3.16668C5.42512 3.16668 5.84375 3.28387 6.21125 3.50555C6.36945 3.60027 6.57355 3.54949 6.66895 3.39227C6.76398 3.23457 6.7132 3.0298 6.55566 2.93457C6.0843 2.65023 5.54656 2.5 5 2.5C3.3457 2.5 2 3.84586 2 5.5C2 6.31496 2.33066 7.07535 2.89781 7.63191C2.36918 7.87766 1.88094 8.21691 1.46355 8.63152C0.519844 9.57941 0 10.8348 0 12.1667V14.1667C0 14.3508 0.149102 14.5 0.33332 14.5H3.66664V17.1667C3.66664 17.3508 3.81574 17.5 3.99996 17.5H16C16.1842 17.5 16.3333 17.3507 16.3333 17.1667V14.5H19.6666C19.8509 14.5 19.9999 14.3507 19.9999 14.1667V12.1667C20 10.1958 18.8546 8.4425 17.1 7.63363ZM7 6.16668C7 4.51254 8.3457 3.16668 10 3.16668C11.6543 3.16668 13 4.51254 13 6.16668C13 7.82082 11.6543 9.16668 10 9.16668C8.3457 9.16668 7 7.82078 7 6.16668ZM15.6667 16.8333H4.33332V14.5C4.33332 12.9886 4.9225 11.5653 5.99152 10.493C6.55469 9.93285 7.23742 9.49836 7.96941 9.21727C8.55125 9.60582 9.24938 9.83332 10 9.83332C10.7519 9.83332 11.4512 9.60516 12.0336 9.21543C14.2124 10.0526 15.6667 12.1531 15.6667 14.5V16.8333Z" fill="white" stroke="white" stroke-width="0.5"/>
</g>
</g>
<defs>
<clipPath id="clip0_1114_294">
<rect width="20" height="20" fill="white"/>
</clipPath>
<clipPath id="clip1_1114_294">
<rect width="20" height="20" fill="white"/>
</clipPath>
</defs>
</svg>
